<svg xmlns="http://www.w3.org/2000/svg" width="50" height="50" viewBox="0 0 50 50"><g transform="translate(-331 -645)"><circle cx="25" cy="25" r="25" transform="translate(331 645)" fill="#fff"/><path d="M24.215,9.9c0-4.975-1.23-10.726-6.186-10.726A8.447,8.447,0,0,1,12.107,1.6,8.447,8.447,0,0,1,6.186-.825C1.23-.825,0,4.926,0,9.9c0,2.762,1.816,5.013,4.03,5.013H20.185C22.4,14.915,24.215,12.664,24.215,9.9ZM19.372-6.878a7.266,7.266,0,0,0-7.264-7.264A7.266,7.266,0,0,0,4.843-6.878,7.266,7.266,0,0,0,12.107.386,7.266,7.266,0,0,0,19.372-6.878Z" transform="translate(344 669.143)" fill="#6d6e70"/></g></svg>