<svg xmlns="http://www.w3.org/2000/svg" width="24" height="18" viewBox="0 0 24 18">
    <g transform="translate(0 -64)">
        <path d="M81.79,294.078l-8.5-6a.5.5,0,0,0-.577,0l-8.5,6a.5.5,0,0,0-.212.409v.5a.5.5,0,0,0,.5.5h17a.5.5,0,0,0,.5-.5v-.5A.5.5,0,0,0,81.79,294.078Z" transform="translate(-61.001 -213.487)" fill="#cfd8dc"></path>
        <path d="M73.289,166.07l-8.5-6a.5.5,0,0,0-.789.409v12a.5.5,0,0,0,.789.409l8.5-6a.5.5,0,0,0,0-.817Z" transform="translate(-61 -91.479)" fill="#fafafa"></path>
        <path d="M254.549,160.068a.506.506,0,0,0-.519.035l-8.5,6a.5.5,0,0,0,0,.817l8.5,6a.5.5,0,0,0,.789-.408v-12A.5.5,0,0,0,254.549,160.068Z" transform="translate(-233.819 -91.512)" fill="#eee"></path>
        <path d="M62.641,64.344A.5.5,0,0,0,62.166,64h-19a.5.5,0,0,0-.3.9l9.5,7a.5.5,0,0,0,.593,0l9.5-7A.5.5,0,0,0,62.641,64.344Z" transform="translate(-40.666)" fill="#eceff1"></path>
        <path d="M21.5,64a.5.5,0,0,0-.3.1L12,70.879,2.8,64.1a.5.5,0,0,0-.3-.1A2.5,2.5,0,0,0,0,66.5v13A2.5,2.5,0,0,0,2.5,82h1a.5.5,0,0,0,.5-.5V69.965l7.711,5.444a.5.5,0,0,0,.577,0L20,69.965V81.5a.5.5,0,0,0,.5.5h1A2.5,2.5,0,0,0,24,79.5v-13A2.5,2.5,0,0,0,21.5,64Z" fill="#f44336"></path>
    </g>
</svg>